<svg xmlns="http://www.w3.org/2000/svg" width="48" height="22" viewBox="0 0 48 22"><defs><linearGradient id="crisp-grad" gradientUnits="userSpaceOnUse" x1="0" y1="0" x2="4892" y2="0"><stop offset="0%" stop-color="#0A78E8"/><stop offset="50%" stop-color="#0071E3"/><stop offset="100%" stop-color="#006ADD"/></linearGradient></defs><g fill="url(#crisp-grad)" transform="translate(6, 15) scale(0.007812, -0.007812)"><path d="M808 -41Q492 -41 325 131Q101 342 101 739Q101 1144 325 1347Q492 1519 808 1519Q1124 1519 1291 1347Q1514 1144 1514 739Q1514 342 1291 131Q1124 -41 808 -41ZM1099 355Q1206 490 1206 739Q1206 987 1098.5 1122.5Q991 1258 808 1258Q625 1258 516.0 1123.0Q407 988 407 739Q407 490 516.0 355.0Q625 220 808 220Q991 220 1099 355ZM2274 827Q2102 827 2043 715Q2010 652 2010 521V0H1723V1090H1995V900Q2061 1009 2110 1049Q2190 1116 2318 1116Q2326 1116 2331.5 1115.5Q2337 1115 2356 1114V822Q2329 825 2308.0 826.0Q2287 827 2274 827ZM3115 -29Q2980 -29 2898 25Q2849 57 2792 137V0H2513V1472H2797V948Q2851 1024 2916 1064Q2993 1114 3112 1114Q3327 1114 3448.5 959.0Q3570 804 3570 559Q3570 305 3450.0 138.0Q3330 -29 3115 -29ZM3271 529Q3271 645 3241 721Q3184 865 3031 865Q2876 865 2818 724Q2788 649 2788 530Q2788 390 2850.0 298.0Q2912 206 3039 206Q3149 206 3210.0 295.0Q3271 384 3271 529ZM4067 1090V0H3778V1090ZM4067 1483V1220H3778V1483ZM4842 203V-10L4707 -15Q4505 -22 4431 55Q4383 104 4383 206V877H4231V1080H4383V1384H4665V1080H4842V877H4665V301Q4665 234 4682.0 217.5Q4699 201 4786 201Q4799 201 4813.5 201.5Q4828 202 4842 203Z"/></g></svg>
