<svg xmlns="http://www.w3.org/2000/svg" width="135" height="22" viewBox="0 0 135 22"><defs><linearGradient id="crisp-grad" gradientUnits="userSpaceOnUse" x1="0" y1="0" x2="16043" y2="0"><stop offset="0%" stop-color="#0A78E8"/><stop offset="50%" stop-color="#0071E3"/><stop offset="100%" stop-color="#006ADD"/></linearGradient></defs><g fill="url(#crisp-grad)" transform="translate(6, 15) scale(0.007812, -0.007812)"><path d="M1590 1474H1903L1488 0H1194L1016 862L964 1147L912 862L734 0H448L30 1474H357L552 630L594 395L637 625L803 1474H1128L1303 630L1348 395L1393 621ZM2999 320Q2988 223 2898 123Q2758 -36 2506 -36Q2298 -36 2139.0 98.0Q1980 232 1980 534Q1980 817 2123.5 968.0Q2267 1119 2496 1119Q2632 1119 2741.0 1068.0Q2850 1017 2921 907Q2985 810 3004 682Q3015 607 3013 466H2267Q2273 302 2370 236Q2429 195 2512 195Q2600 195 2655 245Q2685 272 2708 320ZM2717 654Q2710 767 2648.5 825.5Q2587 884 2496 884Q2397 884 2342.5 822.0Q2288 760 2274 654ZM3797 -29Q3662 -29 3580 25Q3531 57 3474 137V0H3195V1472H3479V948Q3533 1024 3598 1064Q3675 1114 3794 1114Q4009 1114 4130.5 959.0Q4252 804 4252 559Q4252 305 4132.0 138.0Q4012 -29 3797 -29ZM3953 529Q3953 645 3923 721Q3866 865 3713 865Q3558 865 3500 724Q3470 649 3470 530Q3470 390 3532.0 298.0Q3594 206 3721 206Q3831 206 3892.0 295.0Q3953 384 3953 529ZM5114 0H4479V1474H5114Q5251 1472 5342 1442Q5497 1391 5593 1255Q5670 1145 5698.0 1017.0Q5726 889 5726 773Q5726 479 5608 275Q5448 0 5114 0ZM5343 1098Q5272 1218 5062 1218H4778V256H5062Q5280 256 5366 471Q5413 589 5413 752Q5413 977 5343 1098ZM6844 952Q6982 779 6982 543Q6982 303 6844.0 132.5Q6706 -38 6425 -38Q6144 -38 6006.0 132.5Q5868 303 5868 543Q5868 779 6006.0 952.0Q6144 1125 6425 1125Q6706 1125 6844 952ZM6424 884Q6299 884 6231.5 795.5Q6164 707 6164 543Q6164 379 6231.5 290.0Q6299 201 6424 201Q6549 201 6616.0 290.0Q6683 379 6683 543Q6683 707 6616.0 795.5Q6549 884 6424 884ZM8013 0 7842 794 7669 0H7373L7067 1090H7373L7543 308L7700 1090H7989L8155 305L8325 1090H8622L8306 0ZM9292 879Q9147 879 9093 756Q9065 691 9065 590V0H8781V1088H9056V929Q9111 1013 9160 1050Q9248 1116 9383 1116Q9552 1116 9659.5 1027.5Q9767 939 9767 734V0H9475V663Q9475 749 9452 795Q9410 879 9292 879ZM10036 1474H10321V0H10036ZM11508 952Q11646 779 11646 543Q11646 303 11508.0 132.5Q11370 -38 11089 -38Q10808 -38 10670.0 132.5Q10532 303 10532 543Q10532 779 10670.0 952.0Q10808 1125 11089 1125Q11370 1125 11508 952ZM11088 884Q10963 884 10895.5 795.5Q10828 707 10828 543Q10828 379 10895.5 290.0Q10963 201 11088 201Q11213 201 11280.0 290.0Q11347 379 11347 543Q11347 707 11280.0 795.5Q11213 884 11088 884ZM11891 972Q12004 1116 12279 1116Q12458 1116 12597 1045Q12736 974 12736 777V277Q12736 225 12738 151Q12741 95 12755.0 75.0Q12769 55 12797 42V0H12487Q12474 33 12469.0 62.0Q12464 91 12461 128Q12402 64 12325 19Q12233 -34 12117 -34Q11969 -34 11872.5 50.5Q11776 135 11776 290Q11776 491 11931 581Q12016 630 12181 651L12278 663Q12357 673 12391 688Q12452 714 12452 769Q12452 836 12405.5 861.5Q12359 887 12269 887Q12168 887 12126 837Q12096 800 12086 737H11811Q11820 880 11891 972ZM12103 206Q12143 173 12201 173Q12293 173 12370.5 227.0Q12448 281 12451 424V530Q12424 513 12396.5 502.5Q12369 492 12321 483L12257 471Q12167 455 12128 432Q12062 393 12062 311Q12062 238 12103 206ZM13981 1472V0H13704V151Q13643 54 13565.0 10.0Q13487 -34 13371 -34Q13180 -34 13049.5 120.5Q12919 275 12919 517Q12919 796 13047.5 956.0Q13176 1116 13391 1116Q13490 1116 13567.0 1072.5Q13644 1029 13692 952V1472ZM13213 538Q13213 387 13273 297Q13332 206 13453 206Q13574 206 13637.0 296.0Q13700 386 13700 529Q13700 729 13599 815Q13537 867 13455 867Q13330 867 13271.5 772.5Q13213 678 13213 538ZM15173 320Q15162 223 15072 123Q14932 -36 14680 -36Q14472 -36 14313.0 98.0Q14154 232 14154 534Q14154 817 14297.5 968.0Q14441 1119 14670 1119Q14806 1119 14915.0 1068.0Q15024 1017 15095 907Q15159 810 15178 682Q15189 607 15187 466H14441Q14447 302 14544 236Q14603 195 14686 195Q14774 195 14829 245Q14859 272 14882 320ZM14891 654Q14884 767 14822.5 825.5Q14761 884 14670 884Q14571 884 14516.5 822.0Q14462 760 14448 654ZM15927 827Q15755 827 15696 715Q15663 652 15663 521V0H15376V1090H15648V900Q15714 1009 15763 1049Q15843 1116 15971 1116Q15979 1116 15984.5 1115.5Q15990 1115 16009 1114V822Q15982 825 15961.0 826.0Q15940 827 15927 827Z"/></g></svg>
